<svg xmlns="http://www.w3.org/2000/svg" viewBox="0 0 48 48"><defs><style>.cls-1{fill:#7f52ff;}</style></defs><title>Asset 58ldpi</title><g id="Layer_2" data-name="Layer 2"><g id="layer_1-2" data-name="layer 1"><path class="cls-1" d="M10,12C7.24,12,5,9.31,5,6s2.24-6,5-6,5,2.69,5,6S12.76,12,10,12ZM10,2C8.35,2,7,3.79,7,6s1.35,4,3,4,3-1.79,3-4S11.65,2,10,2Z"/><rect class="cls-1" x="2" y="46" width="16" height="2"/><rect class="cls-1" x="4" y="16" width="2" height="31"/><rect class="cls-1" x="9" y="31" width="2" height="16"/><path class="cls-1" d="M16,47H14V15a1,1,0,0,1,1-1H28a1,1,0,0,0,0-2H10.06l-5.39.6a3,3,0,0,0-2.67,3V27a1,1,0,0,0,1,1H4V16H6V29a1,1,0,0,1-1,1H3a3,3,0,0,1-3-3V15.58a5,5,0,0,1,4.45-5L9.89,10H28a3,3,0,0,1,0,6H16Z"/><rect class="cls-1" x="5" y="26" width="10" height="2"/><rect class="cls-1" x="25" y="46" width="12" height="2"/><rect class="cls-1" x="23" y="42" width="16" height="2"/><rect class="cls-1" x="23" y="38" width="16" height="2"/><rect class="cls-1" x="23" y="38" width="16" height="2"/><path class="cls-1" d="M39,36H23a2,2,0,0,1-2-2V32.64a3.85,3.85,0,0,0-1.27-2.91,18.06,18.06,0,0,1-2-2.1l1.56-1.26a14.85,14.85,0,0,0,1.77,1.86A5.88,5.88,0,0,1,23,32.64V34H39V32.64a5.88,5.88,0,0,1,1.94-4.41A15,15,0,1,0,19.29,7.63L17.73,6.37A17,17,0,1,1,42.27,29.73,3.85,3.85,0,0,0,41,32.64V34A2,2,0,0,1,39,36Z"/><path class="cls-1" d="M33,36H29a1,1,0,0,1-1-.82l-2-11a1,1,0,0,1,.21-.82A1,1,0,0,1,27,23h8a1,1,0,0,1,.77.36,1,1,0,0,1,.21.82l-2,11A1,1,0,0,1,33,36Zm-3.17-2h2.34l1.63-9H28.2Z"/><path class="cls-1" d="M42,17H40a9,9,0,0,0-9-9V6A11,11,0,0,1,42,17Z"/></g></g></svg>